<svg xmlns="http://www.w3.org/2000/svg" width="630" height="1890" viewBox="0 0 630 1890" version="1.1"><path d="M 95.063 56.192 C 89.169 58.455, 81.466 65.343, 78.391 71.098 C 77.023 73.661, 76.478 77.371, 76.185 86.135 L 75.796 97.769 70.232 98.231 C 60.800 99.013, 61 98.282, 61 132 C 61 158.845, 61.128 160.937, 62.912 163.139 L 64.823 165.500 105.500 165.500 L 146.177 165.500 148.088 163.139 C 149.872 160.936, 150 158.843, 150 131.844 L 150 102.909 147.545 100.455 C 145.605 98.514, 144.061 98, 140.174 98 L 135.257 98 134.812 87.194 C 134.462 78.705, 133.889 75.403, 132.141 71.792 C 127.457 62.116, 114.796 53.927, 104.712 54.052 C 102.396 54.081, 98.053 55.044, 95.063 56.192 M 101.037 67.174 C 91.459 69.922, 88 75.835, 88 89.460 L 88 99 105 99 L 122 99 122 88.934 C 122 83.398, 121.495 77.886, 120.878 76.684 C 118.636 72.322, 114.476 68.922, 109.609 67.476 C 106.874 66.664, 104.606 66.041, 104.568 66.090 C 104.531 66.140, 102.941 66.628, 101.037 67.174 M 97.500 243.839 C 94.200 244.842, 89.421 246.660, 86.881 247.880 L 82.262 250.097 81.791 263.141 C 81.276 277.413, 81.292 277.378, 74.779 278.419 C 70.078 279.171, 62.500 282.867, 58.143 286.534 C 55.410 288.833, 55 289.814, 55 294.056 C 55 298.236, 55.470 299.403, 58.284 302.217 C 60.090 304.024, 63.425 306.339, 65.693 307.362 C 69.163 308.926, 69.984 309.879, 70.864 313.361 C 71.439 315.637, 73.048 319.041, 74.439 320.923 L 76.969 324.347 72.235 327.057 C 69.631 328.548, 66.643 330.720, 65.595 331.884 C 64.547 333.048, 63.331 334, 62.893 334 C 60.921 334, 56.116 325.115, 55.816 320.915 C 55.553 317.247, 55.128 316.447, 53.302 316.187 C 51.653 315.953, 50.464 316.890, 48.540 319.937 C 46.760 322.756, 45.275 324, 43.687 324 C 41.218 324, 39 325.689, 39 327.570 C 39 328.214, 41.037 329.310, 43.526 330.007 C 46.015 330.704, 48.272 331.631, 48.542 332.067 C 50.411 335.093, 54.577 349.006, 53.949 350.130 C 51.010 355.396, 48.579 366.183, 48.570 374 C 48.558 384.118, 51.354 391.354, 57.747 397.747 C 69.061 409.061, 82.755 414.489, 100 414.496 C 125.759 414.506, 152.170 402.374, 157.179 388.230 C 159.298 382.246, 158.689 360.879, 156.198 353.810 L 154.194 348.120 160.023 342.560 C 164.532 338.258, 166.554 337, 168.957 337 C 173.281 337, 174.126 334.310, 170.668 331.553 C 168.812 330.072, 168 328.485, 168 326.335 C 168 324.635, 167.347 322.703, 166.548 322.040 C 163.752 319.719, 161.657 321.311, 159.658 327.276 C 158.477 330.800, 156.271 334.541, 153.985 336.896 L 150.244 340.751 142.626 333.399 L 135.007 326.048 138.171 321.560 C 140.915 317.666, 141.940 316.985, 145.917 316.408 C 150.818 315.698, 154.047 314.379, 155.235 312.600 C 156.287 311.025, 156.168 305.572, 155.015 302.541 C 153.961 299.766, 146.552 292, 144.960 292 C 142.879 292, 144.889 275.847, 148.472 263.784 C 149.834 259.195, 149.800 258.889, 147.699 256.868 C 143.782 253.103, 135.054 247.932, 128.197 245.314 C 119.184 241.874, 106.044 241.242, 97.500 243.839 M 81.667 300.667 C 80.295 302.038, 81.072 304.968, 83.093 306.050 C 86.011 307.611, 90 306.437, 90 304.016 C 90 301.075, 83.764 298.569, 81.667 300.667 M 110.861 305.937 C 107.502 308.693, 109.314 311.396, 114.793 311.805 C 118.249 312.062, 119.141 311.715, 120.551 309.562 C 121.469 308.162, 121.960 306.337, 121.641 305.508 C 120.783 303.272, 113.768 303.552, 110.861 305.937 M 91.723 312.171 C 90.092 312.766, 88.189 314.693, 87.111 316.842 C 85.301 320.451, 81.049 332.937, 79.136 340.263 L 78.154 344.027 80.827 342.093 C 86.051 338.313, 104 318.081, 104 315.972 C 104 314.679, 97.956 310.985, 96 311.083 C 95.175 311.124, 93.250 311.614, 91.723 312.171 M 82.631 354.855 C 79.796 357.987, 81.534 360, 87.072 360 C 90.967 360, 92.150 359.588, 93.042 357.922 C 94.868 354.509, 93.533 353, 88.686 353 C 85.694 353, 83.779 353.587, 82.631 354.855 M 75.163 371.878 C 72.698 373.440, 74.224 377.355, 77.683 378.342 C 81.598 379.460, 86 378.475, 86 376.481 C 86 372.537, 78.888 369.517, 75.163 371.878 M 78 389.729 C 72.018 392.006, 75.800 397.823, 82.452 396.575 C 86.136 395.884, 88.664 392.064, 86.723 390.123 C 85.557 388.957, 80.613 388.734, 78 389.729 M 95 441.827 C 91.425 442.769, 86.475 444.663, 84 446.036 L 79.500 448.532 78.876 460.657 C 78.534 467.326, 77.981 473.222, 77.649 473.760 C 77.316 474.297, 75.122 475.035, 72.772 475.399 C 66.865 476.315, 58.594 480.505, 55.546 484.128 C 50.464 490.168, 53.259 498.096, 61.894 502.132 C 66.236 504.161, 67.121 505.071, 68.084 508.491 C 68.701 510.686, 69.986 513.611, 70.939 514.991 C 74.172 519.672, 74.167 519.863, 70.783 521.568 C 68.977 522.477, 65.886 524.766, 63.912 526.655 L 60.325 530.089 57.452 525.794 C 55.826 523.363, 54.345 519.548, 54.040 517 C 53.606 513.387, 53.082 512.440, 51.380 512.197 C 49.845 511.978, 48.681 512.876, 47.164 515.447 C 45.696 517.934, 44.354 519, 42.689 519 C 41.380 519, 39.500 519.896, 38.509 520.990 C 36.749 522.935, 36.797 523.015, 40.604 524.514 C 46.939 527.009, 47.151 527.248, 50.063 535.164 L 52.855 542.755 49.941 551.127 C 45.755 563.153, 45.792 573.262, 50.051 581.787 C 55.150 591.991, 65.109 599.843, 79 604.612 C 87.310 607.465, 107.744 607.263, 118.298 604.225 C 134.602 599.531, 146.989 591.326, 151.095 582.500 C 153.887 576.500, 153.779 557.250, 150.906 548.721 L 148.812 542.506 154.656 537.277 C 158.693 533.665, 161.360 532.041, 163.281 532.024 C 167.244 531.990, 167.991 529.207, 164.741 526.590 C 163.029 525.212, 162.035 523.307, 161.822 521 C 161.551 518.057, 161.078 517.451, 158.849 517.193 C 156.449 516.915, 156.036 517.388, 154.481 522.193 C 153.438 525.419, 151.227 529.098, 148.846 531.575 L 144.927 535.650 137.632 528.575 C 131.559 522.685, 130.540 521.249, 131.548 520 C 132.214 519.175, 133.500 517.038, 134.405 515.250 C 135.654 512.785, 136.709 511.999, 138.776 511.994 C 143.921 511.984, 149.059 509.966, 150.175 507.516 C 152.019 503.468, 150.266 497.999, 145.664 493.444 C 143.374 491.177, 140.741 488.911, 139.813 488.407 C 138.236 487.551, 138.251 486.773, 140.043 476.496 C 141.097 470.448, 142.620 463.369, 143.428 460.763 L 144.896 456.027 138.569 451.512 C 123.814 440.983, 109.926 437.896, 95 441.827 M 324.112 451.250 C 321.041 459.494, 308.758 501.091, 309.250 501.583 C 309.787 502.121, 336.476 487.124, 344.655 481.688 C 349.054 478.765, 351.255 474.787, 350.108 471.834 C 349.092 469.218, 344.660 464.841, 341.253 463.089 C 340.018 462.453, 338.106 460.168, 337.005 458.010 C 335.768 455.585, 333.345 453.115, 330.664 451.543 C 325.376 448.444, 325.161 448.435, 324.112 451.250 M 272.143 458.353 C 270.355 460.197, 268.250 463.840, 267.465 466.450 C 266.680 469.059, 264.686 472.733, 263.033 474.615 C 257.806 480.568, 257.643 486.183, 262.601 489.515 C 265.739 491.624, 304.732 502.602, 305.688 501.645 C 305.973 501.360, 301.052 492.886, 294.752 482.813 C 288.452 472.741, 282.062 462.363, 280.553 459.750 C 279.045 457.137, 277.266 455, 276.601 455 C 275.936 455, 273.930 456.509, 272.143 458.353 M 78 498.429 C 78 500.234, 80.716 503, 82.490 503 C 86.649 503, 88.860 498.928, 85.418 497.607 C 82.412 496.453, 78 496.942, 78 498.429 M 335 502.418 L 311.500 506.617 311.852 529.059 C 312.046 541.401, 312.355 551.659, 312.539 551.854 C 312.724 552.049, 321.489 551.877, 332.018 551.473 C 353.788 550.638, 351.934 551.541, 354.027 540.750 C 355.022 535.618, 355.405 535, 357.592 535 C 360.917 535, 361.627 532.819, 362.959 518.500 C 363.573 511.900, 364.335 504.587, 364.651 502.250 L 365.227 498 361.864 498.109 C 360.014 498.169, 347.925 500.108, 335 502.418 M 107.223 501.557 C 103.014 504.504, 105.558 508, 111.911 508 C 115.282 508, 118.663 504.170, 117.641 501.508 C 116.867 499.490, 110.129 499.521, 107.223 501.557 M 87.651 507.868 C 84.531 509.096, 74.496 535.852, 76.441 537.760 C 77.209 538.513, 90.364 525.273, 97.500 516.566 L 101.431 511.768 98.660 509.384 C 95.873 506.986, 91.442 506.376, 87.651 507.868 M 273.643 509.068 C 260.522 510.065, 249.568 511.098, 249.302 511.365 C 249.036 511.631, 249.827 517.958, 251.060 525.424 C 253.164 538.163, 253.441 539, 255.549 539 C 257.524 539, 257.928 539.763, 258.897 545.332 C 259.504 548.814, 260 552.483, 260 553.484 C 260 555.189, 260.874 555.262, 273.750 554.634 C 281.313 554.266, 290.988 553.683, 295.250 553.338 L 303 552.712 303 529.856 L 303 507 300.250 507.127 C 298.738 507.198, 286.764 508.071, 273.643 509.068 M 80.023 548.977 C 77.622 551.378, 78.280 553.629, 81.567 554.258 C 87.166 555.328, 92.049 552.176, 90.608 548.422 C 89.756 546.201, 82.414 546.586, 80.023 548.977 M 330 556.879 L 312.500 558.500 312.500 578.500 L 312.500 598.500 328.924 598.776 C 337.958 598.927, 345.761 598.639, 346.265 598.135 C 347.365 597.035, 352.251 557.215, 351.446 555.912 C 351.136 555.410, 350.121 555.058, 349.191 555.129 C 348.261 555.201, 339.625 555.988, 330 556.879 M 261.831 559.502 C 261.157 560.176, 266.686 592.658, 268 595.750 C 268.936 597.950, 269.315 598, 284.960 598 C 300.724 598, 300.970 597.967, 301.516 595.750 C 301.821 594.513, 301.942 585.850, 301.785 576.500 L 301.500 559.500 281.937 559.229 C 271.178 559.081, 262.130 559.203, 261.831 559.502 M 72.250 565.662 C 70.635 566.314, 70.638 569.455, 72.256 570.797 C 75.820 573.756, 83 573.282, 83 570.088 C 83 566.296, 76.901 563.785, 72.250 565.662 M 73.861 583.937 C 69.652 587.391, 74.213 591.167, 80.645 589.553 C 83.447 588.850, 85.283 585.137, 83.762 583.250 C 82.237 581.357, 76.522 581.754, 73.861 583.937 M 97.500 650.327 C 94.750 651.034, 89.912 652.799, 86.750 654.251 L 81 656.889 80.942 666.195 C 80.911 671.313, 80.566 677.295, 80.177 679.489 C 79.489 683.370, 79.307 683.522, 73.476 685.096 C 61.646 688.288, 54 694.111, 54 699.929 C 54 704.233, 57.966 709.150, 63.706 711.963 C 67.936 714.037, 69.003 715.088, 69.547 717.721 C 69.913 719.493, 71.466 722.920, 72.999 725.337 L 75.786 729.732 72.509 731.294 C 70.707 732.153, 67.659 734.239, 65.734 735.928 C 63.810 737.618, 62.018 739, 61.751 739 C 60.231 739, 55.501 729.845, 55.040 726.011 C 54.311 719.947, 51.976 719.568, 48.423 724.937 C 46.626 727.653, 45.001 729, 43.522 729 C 42.305 729, 40.500 729.896, 39.509 730.990 C 37.749 732.935, 37.797 733.015, 41.604 734.514 C 47.920 737.001, 48.101 737.207, 51.026 745.230 L 53.828 752.917 51.177 760.209 C 48.946 766.346, 48.524 769.161, 48.513 778 C 48.501 787.788, 48.702 788.864, 51.474 793.870 C 57.251 804.300, 70.218 813.197, 84.565 816.576 C 89.716 817.789, 94.330 818.078, 102.500 817.698 C 126.686 816.574, 149.603 805.463, 154.572 792.450 C 156.814 786.579, 156.130 764.915, 153.469 757.560 L 151.683 752.621 157.591 747.363 C 161.294 744.069, 164.591 741.993, 166.423 741.803 C 170.271 741.404, 170.678 739.717, 167.619 736.840 C 166.100 735.412, 165.008 733.136, 164.815 731 C 164.534 727.876, 164.188 727.500, 161.595 727.500 C 158.970 727.500, 158.512 728.025, 156.830 732.973 C 155.770 736.092, 153.440 740.013, 151.414 742.088 L 147.857 745.730 140.322 738.293 L 132.788 730.855 134.769 728.678 C 135.859 727.480, 137.238 725.551, 137.835 724.391 C 138.594 722.915, 140.241 722.102, 143.332 721.678 C 152.689 720.396, 155.314 717.320, 153.164 710.159 C 151.975 706.202, 146.068 699.474, 142.899 698.468 C 141.301 697.961, 141.037 697.212, 141.469 694.423 C 141.761 692.540, 142.239 689.313, 142.530 687.250 C 142.822 685.188, 144.029 679.364, 145.213 674.308 L 147.366 665.117 144.933 663.055 C 140.417 659.228, 131.010 653.852, 125.237 651.800 C 118.123 649.272, 104.439 648.545, 97.500 650.327 M 329.480 659.250 C 328.506 661.915, 314 709.856, 314 710.412 C 314 710.735, 314.484 711, 315.077 711 C 316.813 711, 349.088 691.861, 352.700 688.690 C 358.451 683.641, 356.841 678.275, 347.873 672.595 C 346.429 671.680, 344.008 668.972, 342.495 666.578 C 339.974 662.590, 333.867 658, 331.082 658 C 330.453 658, 329.732 658.563, 329.480 659.250 M 474.220 667.216 L 467.940 671.254 460.720 668.204 C 456.749 666.527, 453.136 665.507, 452.691 665.937 C 452.245 666.367, 452.741 670.076, 453.792 674.178 L 455.703 681.638 450.883 687.069 C 448.232 690.056, 446.049 693.010, 446.032 693.633 C 445.989 695.166, 449.391 695.970, 456 695.987 L 461.500 696.002 465.500 702.687 C 467.700 706.363, 470.014 709.534, 470.643 709.733 C 471.276 709.934, 473.030 706.924, 474.575 702.985 C 476.110 699.075, 478.070 695.520, 478.933 695.086 C 479.795 694.653, 483.313 693.719, 486.750 693.012 C 490.255 692.291, 493 691.197, 493 690.520 C 493 689.856, 490.294 687.142, 486.986 684.489 C 483.081 681.356, 481.128 679.110, 481.418 678.082 C 482.393 674.627, 482.454 663.669, 481.500 663.429 C 480.950 663.291, 477.674 664.995, 474.220 667.216 M 276.701 667.909 C 274.725 670.097, 272.586 673.822, 271.949 676.188 C 271.313 678.553, 269.275 682.167, 267.421 684.219 C 263.961 688.049, 262.560 691.479, 263.168 694.636 C 263.767 697.742, 269.330 700.508, 281.610 703.803 C 288.150 705.558, 297.438 708.090, 302.250 709.430 C 307.063 710.770, 311 711.548, 311 711.159 C 311 709.896, 282.294 664.598, 281.279 664.260 C 280.737 664.079, 278.678 665.721, 276.701 667.909 M 528.089 664.945 C 527.121 665.543, 526.936 666.843, 527.436 669.511 C 528.069 672.887, 527.829 673.497, 524.899 675.943 C 521.143 679.079, 521.568 680.509, 526.534 681.440 C 529.147 681.931, 530.359 682.814, 531.103 684.771 C 533.321 690.604, 535.906 691.055, 538.011 685.974 C 538.991 683.607, 539.991 682.974, 543.602 682.432 C 548.456 681.705, 549.098 680.304, 545.903 677.413 C 544.132 675.809, 543.903 674.789, 544.428 670.832 C 544.777 668.203, 544.630 665.889, 544.093 665.558 C 543.568 665.233, 541.574 665.712, 539.663 666.623 C 536.344 668.206, 536.039 668.187, 532.815 666.195 C 530.700 664.887, 528.937 664.421, 528.089 664.945 M 516.131 688.347 C 513.976 690.956, 512 705.281, 512.014 718.208 C 512.021 725.519, 512.299 732.513, 512.630 733.750 C 513.691 737.709, 515.834 736.328, 516.508 731.250 C 517.861 721.051, 520.361 710.138, 523.165 702.192 C 524.778 697.622, 525.841 693.074, 525.527 692.085 C 524.760 689.668, 517.444 686.758, 516.131 688.347 M 571.538 695.925 C 569.099 700.738, 568.915 700.867, 563.508 701.542 C 560.464 701.923, 557.702 702.673, 557.370 703.210 C 557.038 703.747, 558.649 706.104, 560.949 708.448 L 565.132 712.710 564.437 718.855 C 563.626 726.019, 564.148 726.320, 570.795 722.521 L 575.089 720.065 580.517 722.727 C 583.502 724.191, 586.231 725.102, 586.581 724.752 C 586.932 724.402, 586.791 721.635, 586.269 718.604 L 585.320 713.094 589.160 709.344 C 594.619 704.013, 594.262 702.524, 587.257 701.412 C 581.671 700.525, 581.452 700.370, 579.266 695.750 C 578.031 693.138, 576.348 691, 575.527 691 C 574.705 691, 572.911 693.216, 571.538 695.925 M 488.828 701.272 C 484.380 702.144, 484.053 702.442, 482.002 707.494 L 479.849 712.800 482.516 717.025 C 490.871 730.261, 501.352 765.864, 504.587 792 C 504.962 795.025, 505.680 798.300, 506.184 799.278 C 511.471 809.538, 508.837 758.402, 502.511 727.962 C 500.636 718.939, 495.260 701.247, 494.237 700.729 C 493.831 700.524, 491.398 700.769, 488.828 701.272 M 79.513 706.979 C 78.165 709.160, 81.024 712, 84.567 712 C 88.741 712, 90.336 709.450, 87.471 707.355 C 85.320 705.783, 80.396 705.550, 79.513 706.979 M 342.194 711.451 C 328.825 713.795, 317.453 716.147, 316.923 716.677 C 316.314 717.286, 316.242 725.920, 316.729 740.071 L 317.500 762.500 332.500 762.235 C 340.750 762.089, 349.837 761.722, 352.693 761.420 L 357.885 760.870 359.026 755.185 C 361.082 744.944, 361.056 745, 363.630 745 C 365.199 745, 366.358 744.213, 366.943 742.750 C 368.088 739.889, 371.173 709.089, 370.435 707.894 C 369.664 706.648, 369.377 706.684, 342.194 711.451 M 111.465 709.952 C 105.078 712.540, 106.457 717, 113.644 717 C 117.415 717, 118.213 716.628, 119.232 714.390 C 120.253 712.150, 120.152 711.584, 118.519 710.390 C 116.402 708.842, 114.495 708.724, 111.465 709.952 M 544.268 717.299 C 527.870 734.376, 518.364 757.885, 515.771 787.774 C 514.726 799.827, 514.775 801.203, 516.303 802.731 C 518.604 805.033, 519.391 803.855, 521.470 795 C 527.337 770.005, 539.216 746.555, 552.128 734.477 C 556.100 730.762, 556.948 729.412, 556.400 727.684 C 556.023 726.497, 555.791 722.992, 555.884 719.895 C 556.034 714.903, 555.770 714.079, 553.562 712.632 C 552.191 711.735, 550.901 711, 550.694 711 C 550.487 711, 547.595 713.835, 544.268 717.299 M 279.500 718.221 C 265.200 719.292, 253.322 720.347, 253.105 720.563 C 252.887 720.780, 253.738 727.267, 254.997 734.979 C 257.162 748.253, 257.406 749, 259.571 749 C 261.952 749, 261.798 748.565, 264.629 763.250 C 265.254 766.495, 264.984 766.481, 291 764.657 L 307.500 763.500 307.500 740.083 C 307.500 725.271, 307.133 716.594, 306.500 716.469 C 305.950 716.360, 293.800 717.149, 279.500 718.221 M 88.292 718.508 C 87.108 719.337, 84.798 723.500, 83.158 727.758 C 79.953 736.079, 76.624 747.957, 77.305 748.638 C 78.119 749.452, 88.095 739.696, 95.623 730.725 L 103.261 721.621 100.575 719.311 C 97.422 716.599, 91.564 716.216, 88.292 718.508 M 463.924 742.595 C 461.830 744.837, 460.928 745.112, 457.294 744.620 C 452.040 743.908, 451.252 745.068, 453.919 749.587 C 455.830 752.826, 455.876 753.338, 454.498 756.004 C 451.860 761.106, 452.423 762.348, 457.042 761.609 C 460.440 761.066, 461.629 761.378, 464.499 763.567 C 468.415 766.554, 470 766.106, 470 762.012 C 470 758.906, 471.848 756.500, 475.006 755.498 C 478.150 754.500, 477.385 751.554, 473.500 749.701 C 470.916 748.469, 470 747.396, 470 745.598 C 470 739.603, 467.756 738.494, 463.924 742.595 M 84 758.315 C 81.249 759.246, 80.500 760.035, 80.500 762 C 80.500 764.269, 80.934 764.528, 85.193 764.802 C 89.312 765.068, 90.094 764.787, 91.591 762.501 C 94.241 758.457, 90.186 756.221, 84 758.315 M 480.750 761.324 C 476.920 764.460, 477.291 767.034, 482.614 774.247 C 485.152 777.686, 489.540 785.328, 492.364 791.230 C 499.971 807.122, 502.288 805.212, 497.494 787 C 494.794 776.743, 486.670 758.977, 484.706 759.036 C 484.043 759.056, 482.262 760.085, 480.750 761.324 M 576.544 764.531 C 574.125 767.703, 573.503 767.997, 570.436 767.422 C 565.960 766.582, 564.862 768.969, 567.859 773.023 C 569.581 775.352, 569.798 776.402, 568.994 778.516 C 567.063 783.596, 567.550 784.295, 572.508 783.551 C 576.202 782.997, 577.555 783.259, 580.001 785.001 C 583.752 787.671, 585 786.924, 585 782.009 C 585 778.833, 585.549 777.745, 588.049 775.965 C 591.731 773.343, 591.474 772.007, 587 770.500 C 584.307 769.593, 583.338 768.513, 582.227 765.181 C 581.460 762.881, 580.474 761, 580.035 761 C 579.596 761, 578.025 762.589, 576.544 764.531 M 334.500 767.670 C 326.250 768.447, 318.928 769.278, 318.229 769.518 C 317.246 769.855, 317.019 774.433, 317.229 789.727 L 317.500 809.500 334.425 809.775 C 343.734 809.926, 351.738 809.662, 352.212 809.188 C 352.813 808.587, 357.843 771.218, 357.992 766.250 C 358.007 765.754, 349.210 766.285, 334.500 767.670 M 266 770.556 C 266 771.667, 272.112 805.548, 272.624 807.274 C 273.105 808.895, 274.586 809.024, 289.825 808.774 L 306.500 808.500 306.772 789.250 L 307.043 770 286.522 770 C 275.235 770, 266 770.250, 266 770.556 M 549.767 772.031 C 538.656 776.543, 531.276 783.206, 526.727 792.832 C 523.952 798.704, 523.854 799.283, 525.377 800.806 C 526.900 802.329, 527.545 801.896, 534.260 794.840 C 541.967 786.740, 547.719 782.896, 555 780.978 C 557.475 780.326, 559.768 779.363, 560.095 778.838 C 560.905 777.539, 557.078 769.986, 555.645 770.055 C 555.015 770.085, 552.370 770.974, 549.767 772.031 M 74.835 775.638 C 72.849 776.206, 71.842 778.426, 72.635 780.491 C 73.456 782.632, 80.736 784.656, 82.843 783.329 C 88.119 780.007, 81.566 773.713, 74.835 775.638 M 75.750 794.080 C 73.568 795.351, 73.456 799.577, 75.582 800.393 C 77.738 801.221, 82.257 801.131, 83.600 800.235 C 85.782 798.778, 86.984 795.384, 85.753 794.153 C 84.338 792.738, 78.133 792.692, 75.750 794.080" stroke="none" fill="#fbfbfb" fill-rule="evenodd"/></svg>