<svg xmlns="http://www.w3.org/2000/svg" width="630" height="1890" viewBox="0 0 630 1890" version="1.1"><path d="M 95.063 56.192 C 89.169 58.455, 81.466 65.343, 78.391 71.098 C 77.023 73.661, 76.478 77.371, 76.185 86.135 L 75.796 97.769 70.232 98.231 C 60.800 99.013, 61 98.282, 61 132 C 61 158.845, 61.128 160.937, 62.912 163.139 L 64.823 165.500 105.500 165.500 L 146.177 165.500 148.088 163.139 C 149.872 160.936, 150 158.843, 150 131.844 L 150 102.909 147.545 100.455 C 145.605 98.514, 144.061 98, 140.174 98 L 135.257 98 134.812 87.194 C 134.462 78.705, 133.889 75.403, 132.141 71.792 C 127.457 62.116, 114.796 53.927, 104.712 54.052 C 102.396 54.081, 98.053 55.044, 95.063 56.192 M 101.037 67.174 C 91.459 69.922, 88 75.835, 88 89.460 L 88 99 105 99 L 122 99 122 88.934 C 122 83.398, 121.495 77.886, 120.878 76.684 C 118.636 72.322, 114.476 68.922, 109.609 67.476 C 106.874 66.664, 104.606 66.041, 104.568 66.090 C 104.531 66.140, 102.941 66.628, 101.037 67.174 M 97.500 243.839 C 94.200 244.842, 89.421 246.660, 86.881 247.880 L 82.262 250.097 81.791 263.141 C 81.276 277.413, 81.292 277.378, 74.779 278.419 C 70.078 279.171, 62.500 282.867, 58.143 286.534 C 55.410 288.833, 55 289.814, 55 294.056 C 55 298.236, 55.470 299.403, 58.284 302.217 C 60.090 304.024, 63.425 306.339, 65.693 307.362 C 69.163 308.926, 69.984 309.879, 70.864 313.361 C 71.439 315.637, 73.048 319.041, 74.439 320.923 L 76.969 324.347 72.235 327.057 C 69.631 328.548, 66.643 330.720, 65.595 331.884 C 64.547 333.048, 63.331 334, 62.893 334 C 60.921 334, 56.116 325.115, 55.816 320.915 C 55.553 317.247, 55.128 316.447, 53.302 316.187 C 51.653 315.953, 50.464 316.890, 48.540 319.937 C 46.760 322.756, 45.275 324, 43.687 324 C 41.218 324, 39 325.689, 39 327.570 C 39 328.214, 41.037 329.310, 43.526 330.007 C 46.015 330.704, 48.272 331.631, 48.542 332.067 C 50.411 335.093, 54.577 349.006, 53.949 350.130 C 51.010 355.396, 48.579 366.183, 48.570 374 C 48.558 384.118, 51.354 391.354, 57.747 397.747 C 69.061 409.061, 82.755 414.489, 100 414.496 C 125.759 414.506, 152.170 402.374, 157.179 388.230 C 159.298 382.246, 158.689 360.879, 156.198 353.810 L 154.194 348.120 160.023 342.560 C 164.532 338.258, 166.554 337, 168.957 337 C 173.281 337, 174.126 334.310, 170.668 331.553 C 168.812 330.072, 168 328.485, 168 326.335 C 168 324.635, 167.347 322.703, 166.548 322.040 C 163.752 319.719, 161.657 321.311, 159.658 327.276 C 158.477 330.800, 156.271 334.541, 153.985 336.896 L 150.244 340.751 142.626 333.399 L 135.007 326.048 138.171 321.560 C 140.915 317.666, 141.940 316.985, 145.917 316.408 C 150.818 315.698, 154.047 314.379, 155.235 312.600 C 156.287 311.025, 156.168 305.572, 155.015 302.541 C 153.961 299.766, 146.552 292, 144.960 292 C 142.879 292, 144.889 275.847, 148.472 263.784 C 149.834 259.195, 149.800 258.889, 147.699 256.868 C 143.782 253.103, 135.054 247.932, 128.197 245.314 C 119.184 241.874, 106.044 241.242, 97.500 243.839 M 81.667 300.667 C 80.295 302.038, 81.072 304.968, 83.093 306.050 C 86.011 307.611, 90 306.437, 90 304.016 C 90 301.075, 83.764 298.569, 81.667 300.667 M 110.861 305.937 C 107.502 308.693, 109.314 311.396, 114.793 311.805 C 118.249 312.062, 119.141 311.715, 120.551 309.562 C 121.469 308.162, 121.960 306.337, 121.641 305.508 C 120.783 303.272, 113.768 303.552, 110.861 305.937 M 91.723 312.171 C 90.092 312.766, 88.189 314.693, 87.111 316.842 C 85.301 320.451, 81.049 332.937, 79.136 340.263 L 78.154 344.027 80.827 342.093 C 86.051 338.313, 104 318.081, 104 315.972 C 104 314.679, 97.956 310.985, 96 311.083 C 95.175 311.124, 93.250 311.614, 91.723 312.171 M 82.631 354.855 C 79.796 357.987, 81.534 360, 87.072 360 C 90.967 360, 92.150 359.588, 93.042 357.922 C 94.868 354.509, 93.533 353, 88.686 353 C 85.694 353, 83.779 353.587, 82.631 354.855 M 75.163 371.878 C 72.698 373.440, 74.224 377.355, 77.683 378.342 C 81.598 379.460, 86 378.475, 86 376.481 C 86 372.537, 78.888 369.517, 75.163 371.878 M 78 389.729 C 72.018 392.006, 75.800 397.823, 82.452 396.575 C 86.136 395.884, 88.664 392.064, 86.723 390.123 C 85.557 388.957, 80.613 388.734, 78 389.729 M 95 441.827 C 91.425 442.769, 86.475 444.663, 84 446.036 L 79.500 448.532 78.876 460.657 C 78.534 467.326, 77.981 473.222, 77.649 473.760 C 77.316 474.297, 75.122 475.035, 72.772 475.399 C 66.865 476.315, 58.594 480.505, 55.546 484.128 C 50.464 490.168, 53.259 498.096, 61.894 502.132 C 66.236 504.161, 67.121 505.071, 68.084 508.491 C 68.701 510.686, 69.986 513.611, 70.939 514.991 C 74.172 519.672, 74.167 519.863, 70.783 521.568 C 68.977 522.477, 65.886 524.766, 63.912 526.655 L 60.325 530.089 57.452 525.794 C 55.826 523.363, 54.345 519.548, 54.040 517 C 53.606 513.387, 53.082 512.440, 51.380 512.197 C 49.845 511.978, 48.681 512.876, 47.164 515.447 C 45.696 517.934, 44.354 519, 42.689 519 C 41.380 519, 39.500 519.896, 38.509 520.990 C 36.749 522.935, 36.797 523.015, 40.604 524.514 C 46.939 527.009, 47.151 527.248, 50.063 535.164 L 52.855 542.755 49.941 551.127 C 45.755 563.153, 45.792 573.262, 50.051 581.787 C 55.150 591.991, 65.109 599.843, 79 604.612 C 87.310 607.465, 107.744 607.263, 118.298 604.225 C 134.602 599.531, 146.989 591.326, 151.095 582.500 C 153.887 576.500, 153.779 557.250, 150.906 548.721 L 148.812 542.506 154.656 537.277 C 158.693 533.665, 161.360 532.041, 163.281 532.024 C 167.244 531.990, 167.991 529.207, 164.741 526.590 C 163.029 525.212, 162.035 523.307, 161.822 521 C 161.551 518.057, 161.078 517.451, 158.849 517.193 C 156.449 516.915, 156.036 517.388, 154.481 522.193 C 153.438 525.419, 151.227 529.098, 148.846 531.575 L 144.927 535.650 137.632 528.575 C 131.559 522.685, 130.540 521.249, 131.548 520 C 132.214 519.175, 133.500 517.038, 134.405 515.250 C 135.654 512.785, 136.709 511.999, 138.776 511.994 C 143.921 511.984, 149.059 509.966, 150.175 507.516 C 152.019 503.468, 150.266 497.999, 145.664 493.444 C 143.374 491.177, 140.741 488.911, 139.813 488.407 C 138.236 487.551, 138.251 486.773, 140.043 476.496 C 141.097 470.448, 142.620 463.369, 143.428 460.763 L 144.896 456.027 138.569 451.512 C 123.814 440.983, 109.926 437.896, 95 441.827 M 324.112 451.250 C 321.041 459.494, 308.758 501.091, 309.250 501.583 C 309.787 502.121, 336.476 487.124, 344.655 481.688 C 349.054 478.765, 351.255 474.787, 350.108 471.834 C 349.092 469.218, 344.660 464.841, 341.253 463.089 C 340.018 462.453, 338.106 460.168, 337.005 458.010 C 335.768 455.585, 333.345 453.115, 330.664 451.543 C 325.376 448.444, 325.161 448.435, 324.112 451.250 M 272.143 458.353 C 270.355 460.197, 268.250 463.840, 267.465 466.450 C 266.680 469.059, 264.686 472.733, 263.033 474.615 C 257.806 480.568, 257.643 486.183, 262.601 489.515 C 265.739 491.624, 304.732 502.602, 305.688 501.645 C 305.973 501.360, 301.052 492.886, 294.752 482.813 C 288.452 472.741, 282.062 462.363, 280.553 459.750 C 279.045 457.137, 277.266 455, 276.601 455 C 275.936 455, 273.930 456.509, 272.143 458.353 M 78 498.429 C 78 500.234, 80.716 503, 82.490 503 C 86.649 503, 88.860 498.928, 85.418 497.607 C 82.412 496.453, 78 496.942, 78 498.429 M 335 502.418 L 311.500 506.617 311.852 529.059 C 312.046 541.401, 312.355 551.659, 312.539 551.854 C 312.724 552.049, 321.489 551.877, 332.018 551.473 C 353.788 550.638, 351.934 551.541, 354.027 540.750 C 355.022 535.618, 355.405 535, 357.592 535 C 360.917 535, 361.627 532.819, 362.959 518.500 C 363.573 511.900, 364.335 504.587, 364.651 502.250 L 365.227 498 361.864 498.109 C 360.014 498.169, 347.925 500.108, 335 502.418 M 107.223 501.557 C 103.014 504.504, 105.558 508, 111.911 508 C 115.282 508, 118.663 504.170, 117.641 501.508 C 116.867 499.490, 110.129 499.521, 107.223 501.557 M 87.651 507.868 C 84.531 509.096, 74.496 535.852, 76.441 537.760 C 77.209 538.513, 90.364 525.273, 97.500 516.566 L 101.431 511.768 98.660 509.384 C 95.873 506.986, 91.442 506.376, 87.651 507.868 M 273.643 509.068 C 260.522 510.065, 249.568 511.098, 249.302 511.365 C 249.036 511.631, 249.827 517.958, 251.060 525.424 C 253.164 538.163, 253.441 539, 255.549 539 C 257.524 539, 257.928 539.763, 258.897 545.332 C 259.504 548.814, 260 552.483, 260 553.484 C 260 555.189, 260.874 555.262, 273.750 554.634 C 281.313 554.266, 290.988 553.683, 295.250 553.338 L 303 552.712 303 529.856 L 303 507 300.250 507.127 C 298.738 507.198, 286.764 508.071, 273.643 509.068 M 80.023 548.977 C 77.622 551.378, 78.280 553.629, 81.567 554.258 C 87.166 555.328, 92.049 552.176, 90.608 548.422 C 89.756 546.201, 82.414 546.586, 80.023 548.977 M 330 556.879 L 312.500 558.500 312.500 578.500 L 312.500 598.500 328.924 598.776 C 337.958 598.927, 345.761 598.639, 346.265 598.135 C 347.365 597.035, 352.251 557.215, 351.446 555.912 C 351.136 555.410, 350.121 555.058, 349.191 555.129 C 348.261 555.201, 339.625 555.988, 330 556.879 M 261.831 559.502 C 261.157 560.176, 266.686 592.658, 268 595.750 C 268.936 597.950, 269.315 598, 284.960 598 C 300.724 598, 300.970 597.967, 301.516 595.750 C 301.821 594.513, 301.942 585.850, 301.785 576.500 L 301.500 559.500 281.937 559.229 C 271.178 559.081, 262.130 559.203, 261.831 559.502 M 72.250 565.662 C 70.635 566.314, 70.638 569.455, 72.256 570.797 C 75.820 573.756, 83 573.282, 83 570.088 C 83 566.296, 76.901 563.785, 72.250 565.662 M 73.861 583.937 C 69.652 587.391, 74.213 591.167, 80.645 589.553 C 83.447 588.850, 85.283 585.137, 83.762 583.250 C 82.237 581.357, 76.522 581.754, 73.861 583.937 M 97.489 651.808 C 94.183 652.786, 89.458 654.699, 86.989 656.058 L 82.500 658.530 81.882 670.015 C 81.541 676.332, 81.204 682.243, 81.132 683.150 C 81.041 684.280, 79.345 685.191, 75.750 686.038 C 58.836 690.025, 51.156 699.092, 57.179 707.963 C 58.541 709.970, 61.707 712.493, 64.706 713.963 C 68.936 716.037, 70.003 717.088, 70.547 719.721 C 70.913 721.493, 72.537 725.032, 74.157 727.587 C 75.777 730.141, 76.967 732.347, 76.801 732.488 C 76.636 732.630, 75.044 733.486, 73.263 734.392 C 71.483 735.297, 68.431 737.439, 66.480 739.152 C 64.529 740.865, 62.796 742.094, 62.628 741.883 C 58.357 736.507, 56 731.595, 56 728.070 C 56 724.404, 55.754 724, 53.520 724 C 51.634 724, 50.552 724.957, 49 728 C 47.358 731.218, 46.416 732, 44.180 732 C 41.552 732, 39 733.537, 39 735.120 C 39 735.515, 41.217 736.575, 43.926 737.475 L 48.851 739.111 51.865 747.441 L 54.879 755.771 52.199 763.135 C 49.905 769.440, 49.518 772.084, 49.510 781.500 C 49.501 791.830, 49.680 792.826, 52.462 797.848 C 56.511 805.157, 63.954 811.598, 73.500 816.055 C 83.248 820.605, 89.551 822, 100.366 822 C 113.898 822, 126.998 818.922, 139.465 812.812 C 148.152 808.554, 153.472 803.779, 156.562 797.464 C 159.171 792.130, 159.244 791.518, 158.800 778.725 C 158.435 768.234, 157.914 764.542, 156.277 760.863 L 154.213 756.227 159.885 750.613 C 164.437 746.109, 166.200 745, 168.810 745 C 173.251 745, 174.155 742.391, 170.734 739.448 C 168.943 737.907, 168.035 736.011, 167.817 733.355 C 167.543 730.026, 167.139 729.458, 164.850 729.193 C 162.409 728.911, 162.034 729.388, 160.080 735.261 C 158.643 739.577, 156.755 742.802, 154.229 745.252 L 150.500 748.870 142.753 741.419 L 135.006 733.968 138.253 729.002 C 140.699 725.261, 142.117 724.030, 144 724.012 C 148.660 723.969, 154.012 721.911, 155.543 719.575 C 157.863 716.034, 156.061 709.671, 151.379 704.876 C 149.302 702.749, 146.732 700.732, 145.668 700.395 C 143.921 699.840, 143.794 699.128, 144.359 693.049 C 144.703 689.347, 146.126 681.859, 147.521 676.409 L 150.058 666.500 147.107 664 C 142.386 660.001, 133.842 655.150, 127.432 652.829 C 119.264 649.872, 105.609 649.407, 97.489 651.808 M 333.602 667.250 C 332.216 671.788, 328.590 683.600, 325.543 693.500 C 319.482 713.193, 319.527 713, 321.074 713 C 322.267 713, 353.949 694.812, 358.187 691.694 C 361.763 689.063, 363.364 685.087, 362.141 681.872 C 361.155 679.276, 354.657 673, 352.956 673 C 352.420 673, 350.655 670.844, 349.033 668.208 C 346.372 663.884, 340.083 659, 337.174 659 C 336.595 659, 334.987 662.712, 333.602 667.250 M 483.928 668.015 C 480.392 670.168, 476.979 671.945, 476.343 671.965 C 475.707 671.984, 472.201 670.661, 468.553 669.024 C 460.497 665.409, 460.035 665.941, 462.498 675.993 L 464.212 682.984 459.106 688.878 C 456.298 692.119, 454 695.217, 454 695.761 C 454 697.038, 458.886 698, 465.375 698.001 L 470.500 698.002 474.500 704.687 C 476.700 708.363, 478.987 711.525, 479.581 711.713 C 480.176 711.901, 481.902 708.895, 483.417 705.033 C 484.933 701.171, 486.619 697.736, 487.165 697.398 C 487.711 697.061, 491.348 696.043, 495.247 695.137 C 499.146 694.231, 502.504 692.987, 502.709 692.374 C 502.913 691.760, 500.333 689.062, 496.974 686.379 L 490.868 681.500 491.515 673.359 C 491.876 668.806, 491.763 664.972, 491.258 664.660 C 490.762 664.353, 487.463 665.863, 483.928 668.015 M 282.316 668.250 C 278.689 672.082, 277 675.125, 277 677.825 C 277 678.902, 275.185 681.969, 272.967 684.641 C 266.940 691.903, 266.442 697.278, 271.489 700.585 C 272.840 701.470, 282.735 704.596, 293.477 707.531 C 304.220 710.466, 313.975 713.175, 315.156 713.549 C 316.893 714.101, 317.179 713.908, 316.653 712.538 C 315.169 708.670, 287.425 665, 286.452 665 C 285.869 665, 284.008 666.462, 282.316 668.250 M 537.338 670.450 C 537.901 674.560, 537.720 675.063, 534.974 677.018 C 530.899 679.920, 531.228 681.715, 536.076 683.020 C 539.293 683.887, 540.448 684.828, 541.560 687.491 C 542.336 689.346, 543.390 691.123, 543.905 691.441 C 544.781 691.983, 548.457 688.129, 549.205 685.885 C 549.391 685.327, 551.446 684.616, 553.772 684.304 C 558.608 683.655, 559.370 681.550, 555.903 678.413 C 554.143 676.820, 553.904 675.780, 554.414 671.935 C 554.748 669.416, 554.741 667.074, 554.398 666.731 C 554.054 666.388, 552.065 666.790, 549.977 667.626 C 546.562 668.992, 545.875 668.987, 543.140 667.572 C 537.778 664.800, 536.641 665.364, 537.338 670.450 M 525.678 689.750 C 524.765 691.306, 522.164 704.765, 521.507 711.325 C 520.750 718.900, 521.744 735.967, 523.067 738.109 C 524.570 740.541, 525.896 737.792, 526.986 729.979 C 528.326 720.381, 531.669 706.939, 534.161 701.124 C 536.670 695.271, 535.926 692.285, 531.497 690.434 C 527.628 688.818, 526.316 688.663, 525.678 689.750 M 582.998 697.004 C 581.495 700.213, 579.879 702.206, 578.566 702.469 C 577.430 702.698, 574.828 703.153, 572.785 703.481 C 570.742 703.809, 568.777 704.552, 568.418 705.132 C 568.060 705.712, 569.671 708.127, 571.999 710.499 L 576.231 714.811 575.253 720.490 C 574.039 727.537, 575.068 728.217, 581.362 724.528 L 585.857 721.894 590.895 724.447 C 598.151 728.124, 598.372 728.005, 597.563 720.855 L 596.868 714.710 601.138 710.359 C 606.142 705.261, 605.704 704.226, 598.162 703.333 C 593.166 702.741, 592.876 702.534, 590.238 697.675 C 588.732 694.900, 587.019 692.478, 586.432 692.292 C 585.844 692.107, 584.299 694.227, 582.998 697.004 M 496.834 703.165 C 493.655 704.027, 492.881 704.866, 491.008 709.480 L 488.849 714.800 491.437 718.900 C 495.307 725.031, 498.575 732.900, 503.007 746.763 C 506.738 758.435, 513.086 786.924, 514.590 798.750 C 515.148 803.136, 515.591 804, 517.284 804 C 519.267 804, 519.295 803.633, 518.626 786.502 C 517.457 756.541, 513.658 731.398, 507.294 711.500 C 504.146 701.655, 503.703 701.302, 496.834 703.165 M 81.357 709.513 C 80.373 712.076, 82.998 714.130, 86.837 713.801 C 90.857 713.456, 91.806 711.949, 89.473 709.616 C 87.419 707.561, 82.131 707.494, 81.357 709.513 M 348 713.868 L 322.500 718.502 322.855 741.501 C 323.050 754.151, 323.570 764.885, 324.011 765.356 C 324.885 766.290, 362.580 764.753, 363.591 763.742 C 363.931 763.402, 364.950 759.608, 365.855 755.312 C 367.474 747.622, 367.551 747.495, 370.750 747.187 C 372.538 747.014, 374 746.748, 374 746.595 C 374 746.442, 374.887 738.306, 375.971 728.515 C 377.054 718.724, 377.703 710.328, 377.412 709.857 C 376.675 708.664, 376.518 708.686, 348 713.868 M 113.098 712.265 C 109.221 714.259, 108.130 716.843, 110.441 718.559 C 113.610 720.911, 118.557 720.379, 120.872 717.436 C 123.202 714.474, 122.787 712.445, 119.681 711.612 C 116.608 710.788, 115.817 710.867, 113.098 712.265 M 555.514 718.703 C 539.593 734.624, 529.983 755.920, 526.444 783.118 C 525.597 789.632, 525.038 797.782, 525.202 801.231 C 525.455 806.549, 525.780 807.500, 527.344 807.500 C 528.854 807.500, 529.695 805.509, 531.992 796.500 C 538.600 770.577, 548.604 750.630, 561.196 738.269 L 566.525 733.037 566.356 724.951 C 566.228 718.827, 565.763 716.396, 564.439 714.932 C 563.477 713.870, 562.359 713, 561.954 713 C 561.549 713, 558.651 715.566, 555.514 718.703 M 90.292 720.508 C 87.032 722.791, 77.573 748.906, 79.359 750.692 C 80.623 751.956, 104 726.920, 104 724.302 C 104 723.778, 102.958 722.370, 101.686 721.174 C 98.949 718.603, 93.469 718.283, 90.292 720.508 M 282.643 721.068 C 269.522 722.065, 258.574 723.093, 258.314 723.353 C 258.054 723.612, 258.870 730.164, 260.127 737.912 C 262.269 751.120, 262.551 752, 264.635 752 C 266.944 752, 266.777 751.522, 269.652 766.357 L 270.206 769.214 283.853 768.507 C 291.359 768.118, 301.100 767.507, 305.500 767.150 L 313.500 766.500 313.768 742.750 L 314.036 719 310.268 719.127 C 308.196 719.198, 295.764 720.071, 282.643 721.068 M 472.924 745.595 C 470.830 747.837, 469.928 748.112, 466.294 747.620 C 463.980 747.307, 461.825 747.473, 461.506 747.991 C 461.186 748.508, 461.799 750.646, 462.868 752.741 C 464.573 756.083, 464.643 756.853, 463.441 759.025 C 462.687 760.386, 462.055 762.339, 462.035 763.364 C 462.004 764.996, 462.534 765.147, 466.297 764.583 C 470.049 764.020, 470.895 764.259, 472.971 766.469 C 476.349 770.065, 477.871 769.657, 478.623 764.956 C 479.106 761.935, 479.950 760.560, 481.958 759.522 C 483.436 758.757, 485.209 757.453, 485.897 756.624 C 486.954 755.351, 486.517 754.794, 483.084 753.043 C 479.624 751.278, 478.924 750.376, 478.382 746.984 C 477.639 742.342, 476.285 741.998, 472.924 745.595 M 86.500 760.700 C 82.879 761.617, 80.943 764.025, 82.095 766.178 C 82.929 767.736, 84.020 768.047, 87.794 767.802 C 91.856 767.539, 92.586 767.145, 93.417 764.770 C 93.943 763.268, 94.175 761.842, 93.934 761.601 C 93.090 760.757, 88.482 760.199, 86.500 760.700 M 489.750 764.309 C 485.930 767.457, 486.262 770.572, 491.105 777.016 C 493.362 780.021, 497.750 787.751, 500.855 794.194 C 505.057 802.916, 506.982 805.921, 508.386 805.955 C 510.063 805.995, 510.200 805.476, 509.624 801.274 C 507.811 788.049, 497.712 762.837, 494 762.271 C 493.175 762.146, 491.262 763.063, 489.750 764.309 M 587.485 767.609 C 585.092 770.745, 584.312 771.150, 581.530 770.699 C 576.184 769.831, 575.232 771.240, 578.166 775.675 C 580.524 779.238, 580.609 779.767, 579.387 783.297 C 577.815 787.838, 579.077 788.866, 584.080 787.122 C 586.802 786.173, 587.600 786.356, 590.549 788.605 C 592.400 790.017, 594.383 790.881, 594.957 790.527 C 595.531 790.172, 596 787.981, 596 785.657 C 596 782.005, 596.415 781.186, 599.056 779.626 C 602.911 777.349, 602.532 775.024, 598.060 773.520 C 595.301 772.591, 594.345 771.535, 593.227 768.181 C 592.460 765.881, 591.474 764, 591.035 764 C 590.596 764, 588.999 765.624, 587.485 767.609 M 340 770.882 L 323.500 772.500 323.500 793 L 323.500 813.500 341.158 813.773 L 358.817 814.045 359.407 810.273 C 360.193 805.248, 364 772.210, 364 770.413 C 364 768.683, 362.033 768.721, 340 770.882 M 271 773.591 C 271 774.755, 277.113 809.536, 277.618 811.250 C 278.084 812.827, 279.804 813, 295.067 813 L 312 813 312 793 L 312 773 291.500 773 C 280.225 773, 271 773.266, 271 773.591 M 559.892 775.354 C 548.428 780.070, 540.842 786.847, 536.438 796.305 C 533.574 802.457, 533.491 803.333, 535.609 805.091 C 537.014 806.256, 537.935 805.613, 542.859 800.033 C 549.464 792.547, 558.032 786.689, 564.982 784.908 C 567.700 784.211, 570.143 783.071, 570.410 782.374 C 571.039 780.734, 567.808 773.016, 566.500 773.034 C 565.950 773.041, 562.976 774.086, 559.892 775.354 M 75.250 779.662 C 73.635 780.314, 73.638 783.455, 75.256 784.797 C 78.871 787.798, 86 787.272, 86 784.004 C 86 780.081, 80.109 777.701, 75.250 779.662 M 76.534 798.963 C 73.654 802.144, 75.229 804, 80.808 804 C 84.894 804, 85.842 803.637, 86.688 801.750 C 88.279 798.201, 87.239 797, 82.572 797 C 79.607 797, 77.769 797.597, 76.534 798.963" stroke="none" fill="#fbfbfb" fill-rule="evenodd"/></svg>